<?xml version="1.0" standalone="no"?>
<!DOCTYPE svg PUBLIC "-//W3C//DTD SVG 20010904//EN"
 "http://www.w3.org/TR/2001/REC-SVG-20010904/DTD/svg10.dtd">
<svg version="1.0" xmlns="http://www.w3.org/2000/svg"
 width="512.000000pt" height="512.000000pt" viewBox="0 0 512.000000 512.000000"
 preserveAspectRatio="xMidYMid meet">

<g transform="translate(0.000000,512.000000) scale(0.100000,-0.100000)"
fill="#ffffff" stroke="none">
<path d="M1915 4434 c-267 -49 -490 -167 -681 -358 -194 -194 -293 -382 -358
-679 -5 -22 -23 -35 -104 -76 -381 -192 -647 -540 -744 -972 -32 -145 -32
-405 0 -556 125 -579 579 -1015 1157 -1108 134 -22 2616 -22 2750 0 139 22
258 60 390 124 578 280 893 913 765 1539 -100 493 -453 893 -929 1052 -168 56
-216 63 -505 69 l-270 6 -31 91 c-129 371 -387 651 -733 792 -161 65 -257 84
-452 88 -126 2 -197 -1 -255 -12z m467 -332 c365 -99 630 -391 702 -774 17
-89 34 -119 85 -150 35 -22 45 -23 386 -29 212 -4 368 -11 395 -18 169 -44
328 -120 449 -217 177 -142 304 -338 368 -570 25 -91 28 -114 28 -274 0 -160
-3 -183 -28 -274 -117 -421 -468 -738 -882 -796 -57 -8 -455 -10 -1375 -8
l-1295 3 -95 28 c-716 207 -1023 1025 -619 1647 24 36 88 110 143 166 110 110
217 182 345 234 163 65 174 79 196 225 20 129 39 193 91 300 128 263 381 459
674 521 98 20 334 13 432 -14z"/>
</g>
</svg>
