<?xml version="1.0" standalone="no"?>
<!DOCTYPE svg PUBLIC "-//W3C//DTD SVG 20010904//EN"
 "http://www.w3.org/TR/2001/REC-SVG-20010904/DTD/svg10.dtd">
<svg version="1.0" xmlns="http://www.w3.org/2000/svg"
 width="512.000000pt" height="512.000000pt" viewBox="0 0 512.000000 512.000000"
 preserveAspectRatio="xMidYMid meet" fill="none">
<g transform="translate(0.000000,512.000000) scale(0.100000,-0.100000)" stroke="none">
<path d="M1875 5109 c-386 -41 -779 -202 -1089 -447 -91 -71 -257 -237 -329
-328 -250 -317 -406 -704 -447 -1103 -46 -458 75 -949 327 -1331 212 -320 478
-559 810 -728 304 -154 595 -223 943 -223 428 0 798 112 1159 351 l123 82 672
-669 c447 -446 684 -676 711 -689 54 -25 166 -26 215 0 49 25 98 74 123 121
29 54 30 163 3 220 -13 27 -243 265 -690 713 -516 517 -669 675 -661 686 235
328 360 626 411 982 22 155 22 429 -1 579 -103 689 -528 1274 -1150 1580 -345
171 -751 244 -1130 204z m365 -509 c199 -21 360 -66 536 -150 437 -210 747
-607 856 -1097 19 -84 22 -130 23 -318 0 -247 -13 -331 -81 -528 -188 -539
-655 -931 -1225 -1028 -172 -29 -442 -23 -600 14 -311 74 -561 211 -777 428
-482 482 -598 1221 -286 1830 160 312 405 550 728 705 129 62 312 117 441 133
50 6 101 13 115 15 52 7 178 5 270 -4z" fill="#FFFFFF"/>
</g>
</svg>
